<?xml version="1.0" encoding="iso-8859-1"?>
<!-- Generator: Adobe Illustrator 18.0.0, SVG Export Plug-In . SVG Version: 6.00 Build 0)  -->
<!DOCTYPE svg PUBLIC "-//W3C//DTD SVG 1.1//EN" "http://www.w3.org/Graphics/SVG/1.1/DTD/svg11.dtd">
<svg xmlns="http://www.w3.org/2000/svg" xmlns:xlink="http://www.w3.org/1999/xlink" version="1.1" id="Capa_1" x="0px" y="0px" viewBox="0 0 303.969 303.969" style="enable-background:new 0 0 303.969 303.969;" xml:space="preserve" width="512px" height="512px">
<path d="M201.604,0H57.038c-8.313,0-15.054,6.74-15.054,15.053v273.863c0,8.313,6.74,15.053,15.054,15.053h189.893  c8.314,0,15.054-6.74,15.054-15.053V60.381L201.604,0z M157.512,187.279c-8.864,0-17.913-3.744-23.616-9.77  c-0.568-0.6-1.006-1.273-1.33-1.986c-0.403,1.121-1.085,2.158-2.045,2.999c-6.791,5.944-15.468,9.218-24.432,9.218  c-20.143,0-36.531-16.058-36.531-35.796c0-19.693,16.388-35.716,36.531-35.716c8.971,0,17.618,3.244,24.349,9.135  c3.016,2.64,3.321,7.223,0.682,10.238c-2.639,3.015-7.223,3.322-10.238,0.682c-4.084-3.574-9.337-5.543-14.792-5.543  c-12.142,0-22.019,9.512-22.019,21.204c0,11.736,9.878,21.284,22.019,21.284c5.447,0,10.729-1.998,14.875-5.626  c3.015-2.639,7.599-2.334,10.238,0.682c0.479,0.548,0.858,1.148,1.145,1.776c0.372-1.034,0.979-2.001,1.832-2.809  c2.911-2.755,7.503-2.628,10.257,0.283c2.961,3.13,8.216,5.232,13.076,5.232c3.878,0,10.441-1.048,10.441-4.976  c0.028-3.383-1.398-4.717-11.483-7.771c-9.001-2.727-22.605-6.847-22.605-22.727c0-11.9,10.225-19.896,25.442-19.896  c6.705,0,14.024,2.038,19.104,5.319c3.366,2.174,4.332,6.666,2.158,10.031c-2.175,3.366-6.667,4.332-10.032,2.158  c-2.732-1.765-7.35-2.997-11.23-2.997c-4.06,0-10.931,1.134-10.931,5.384c0,4.254,2.069,5.74,12.3,8.839  c8.726,2.643,21.913,6.637,21.788,21.72C182.464,177.492,174.749,187.279,157.512,187.279z M209.458,187.279  c-8.862,0-17.912-3.743-23.616-9.768c-2.755-2.91-2.629-7.502,0.281-10.257c2.911-2.756,7.502-2.629,10.257,0.28  c2.963,3.131,8.219,5.233,13.078,5.233c3.878,0,10.44-1.048,10.44-4.976c0.028-3.383-1.398-4.717-11.482-7.771  c-9.001-2.727-22.605-6.847-22.605-22.727c0-11.9,10.224-19.896,25.442-19.896c6.704,0,14.024,2.038,19.104,5.319  c3.366,2.174,4.332,6.665,2.158,10.031c-2.174,3.367-6.665,4.332-10.031,2.158c-2.732-1.765-7.351-2.997-11.23-2.997  c-4.06,0-10.93,1.134-10.93,5.384c0,4.254,2.069,5.74,12.299,8.839c8.726,2.643,21.913,6.637,21.787,21.72  C234.41,177.492,226.695,187.279,209.458,187.279z M195.97,69.871c-2.65,0-4.798-2.146-4.798-4.797V19.006l50.881,50.865H195.97z" fill="#ffffff"/>
<g>
</g>
<g>
</g>
<g>
</g>
<g>
</g>
<g>
</g>
<g>
</g>
<g>
</g>
<g>
</g>
<g>
</g>
<g>
</g>
<g>
</g>
<g>
</g>
<g>
</g>
<g>
</g>
<g>
</g>
</svg>
