<?xml version="1.0" encoding="iso-8859-1"?>
<!-- Generator: Adobe Illustrator 16.0.0, SVG Export Plug-In . SVG Version: 6.00 Build 0)  -->
<!DOCTYPE svg PUBLIC "-//W3C//DTD SVG 1.1//EN" "http://www.w3.org/Graphics/SVG/1.1/DTD/svg11.dtd">
<svg xmlns="http://www.w3.org/2000/svg" xmlns:xlink="http://www.w3.org/1999/xlink" version="1.1" id="Capa_1" x="0px" y="0px" width="512px" height="512px" viewBox="0 0 497.819 497.818" style="enable-background:new 0 0 497.819 497.818;" xml:space="preserve">
<g>
	<path d="M433.263,234.759c0.859,8.497-5.395,38.046-26.406,83.555c-20.937,45.331-39.324,69.236-46.409,74.234   c-0.798-8.639,5.479-38.135,26.42-83.461C407.973,263.392,426.487,239.461,433.263,234.759z M497.819,248.909   c0,137.469-111.44,248.909-248.91,248.909C111.438,497.818,0,386.378,0,248.909C0,111.438,111.438,0,248.909,0   C386.378,0,497.819,111.438,497.819,248.909z M121.398,183.068c7.007-15.175,40.953-91.309,21.144-100.461   c-1.225-0.565-2.548-0.852-3.939-0.852c-20.344,0-54.96,73.679-58.845,82.078c-10.68,23.13-19.116,45.682-23.746,63.498   c-5.74,22.078-4.938,33.484,2.609,36.961c1.223,0.564,2.542,0.854,3.937,0.854C82.904,265.146,117.517,191.469,121.398,183.068z    M196.481,230.979c16.584-35.911,29.669-70.879,36.837-98.468c10.975-42.219,3.981-50.92-2.235-53.788   c-1.463-0.675-3.06-1.02-4.737-1.02c-24.091,0-67.117,79.252-88.742,126.079c-16.589,35.904-29.668,70.876-36.837,98.473   c-10.973,42.219-3.981,50.913,2.233,53.783c1.465,0.677,3.057,1.018,4.735,1.018C131.822,357.055,174.852,277.803,196.481,230.979z    M284.085,269.631c27.236-58.968,71.392-173.891,43.571-186.744c-1.624-0.749-3.397-1.127-5.273-1.127   c-25.352,0-74.095,80.542-108.657,155.374c-20.507,44.408-36.69,87.643-45.555,121.764c-13.325,51.268-5.249,61.638,1.988,64.975   c1.625,0.757,3.398,1.139,5.271,1.139C200.785,425.003,249.53,344.463,284.085,269.631z M360.219,296.485   c16.592-35.903,29.668-70.879,36.837-98.468c10.973-42.218,3.981-50.922-2.23-53.783c-1.466-0.674-3.062-1.02-4.737-1.02   c-24.096,0-67.122,79.252-88.744,126.077c-16.587,35.908-29.674,70.874-36.842,98.475c-10.968,42.219-3.977,50.918,2.24,53.783   c1.46,0.682,3.057,1.018,4.732,1.018C295.557,422.562,338.596,343.311,360.219,296.485z M438.817,222.858   c-1.223-0.562-2.543-0.85-3.934-0.85c-20.344,0-54.96,73.674-58.848,82.076c-10.678,23.13-19.116,45.686-23.746,63.495   c-5.74,22.08-4.938,33.481,2.604,36.964c1.223,0.568,2.544,0.854,3.938,0.854c20.344,0,54.96-73.679,58.843-82.08   C424.685,308.148,458.633,232.005,438.817,222.858z M136.983,94.506c-6.777,4.702-25.291,28.633-46.4,74.331   c-20.932,45.324-27.214,74.825-26.42,83.457c7.089-4.994,25.473-28.898,46.412-74.23   C131.593,132.557,137.837,103.002,136.983,94.506z" fill="#8bc34a"/>
</g>
<g>
</g>
<g>
</g>
<g>
</g>
<g>
</g>
<g>
</g>
<g>
</g>
<g>
</g>
<g>
</g>
<g>
</g>
<g>
</g>
<g>
</g>
<g>
</g>
<g>
</g>
<g>
</g>
<g>
</g>
</svg>
