<svg xmlns="http://www.w3.org/2000/svg" xmlns:xlink="http://www.w3.org/1999/xlink" viewBox="192 -115 1753 341">
  <defs>
    <style>
      .cls-1 {
        clip-path: url(#clip-Artboard_1);
      }

      .cls-2 {
        fill: #5d5a5d;
      }

      .cls-3, .cls-4 {
        fill: #ca94d1;
      }

      .cls-4 {
        font-size: 196px;
        font-family: Nauman-Regular, Nauman;
      }

      .cls-5 {
        fill: #fff;
      }
    </style>
    <clipPath id="clip-Artboard_1">
      <rect x="192" y="-115" width="1753" height="341"/>
    </clipPath>
  </defs>
  <g id="Artboard_1" data-name="Artboard – 1" class="cls-1">
    <rect class="cls-5" x="192" y="-115" width="1753" height="341"/>
    <rect id="Rectangle_1" data-name="Rectangle 1" class="cls-2" width="1920" height="1080" transform="translate(192 -115)"/>
    <path id="Path_1" data-name="Path 1" class="cls-3" d="M120.119,181.119c6.877-14.894,40.2-89.62,20.753-98.6a9.155,9.155,0,0,0-3.866-.836c-19.968,0-53.944,72.316-57.757,80.56-10.482,22.7-18.762,44.837-23.307,62.324-5.634,21.67-4.847,32.865,2.561,36.277a9.143,9.143,0,0,0,3.864.838C82.337,261.679,116.31,189.365,120.119,181.119Zm73.694,47.025c16.277-35.247,29.12-69.568,36.156-96.647,10.772-41.438,3.907-49.978-2.194-52.793a11.026,11.026,0,0,0-4.649-1c-23.645,0-65.876,77.786-87.1,123.747-16.282,35.24-29.119,69.565-36.156,96.652-10.77,41.438-3.907,49.971,2.192,52.788a10.99,10.99,0,0,0,4.647,1C130.35,351.888,172.584,274.1,193.813,228.144ZM279.8,266.081c3.823-8.276,7.985-17.676,12.343-28.009C317.48,177.992,345.964,93.6,322.562,82.791a12.259,12.259,0,0,0-5.176-1.106c-24.883,0-72.725,79.052-106.647,152.5-20.128,43.587-36.011,86.022-44.712,119.512-13.079,50.32-5.152,60.5,1.951,63.773a12.153,12.153,0,0,0,5.174,1.118C198.038,418.579,245.881,339.529,279.8,266.081Zm74.726,26.357c16.285-35.239,29.119-69.568,36.156-96.647,10.77-41.437,3.907-49.98-2.189-52.788a11.057,11.057,0,0,0-4.649-1c-23.65,0-65.881,77.786-87.1,123.745-16.28,35.244-29.125,69.563-36.161,96.654-10.765,41.438-3.9,49.976,2.2,52.788a10.9,10.9,0,0,0,4.644,1C291.057,416.184,333.3,338.4,354.523,292.438Zm77.144-72.265a9.17,9.17,0,0,0-3.861-.834c-19.968,0-53.943,72.311-57.76,80.558-10.48,22.7-18.762,44.841-23.307,62.321-5.634,21.672-4.847,32.862,2.556,36.28a9.091,9.091,0,0,0,3.865.838c19.968,0,53.943-72.316,57.755-80.562C417.8,303.886,451.117,229.151,431.667,220.173Z" transform="translate(139.611 -192.482)"/>
    <text id="Spectroscope" class="cls-4" transform="translate(633.584 123.94)"><tspan x="0" y="0">Spectroscope</tspan></text>
  </g>
</svg>
